<svg id="Warstwa_1" data-name="Warstwa 1" xmlns="http://www.w3.org/2000/svg" viewBox="0 0 422.43 422.09"><defs><style>.cls-1{fill:#2292dd;}</style></defs><path class="cls-1" d="M211.24.79c5.2,0,10.43-.29,15.6.07,6.68.46,13.36,1.2,20,2.27,5.47.89,10.87,2.28,16.24,3.71,6.5,1.74,13,3.48,19.37,5.74A178.87,178.87,0,0,1,299.88,20c7.39,3.56,14.76,7.21,21.85,11.34A128.58,128.58,0,0,1,337.35,42.2,283.27,283.27,0,0,1,359,60.83c6.59,6.47,12.44,13.71,18.45,20.75a127.68,127.68,0,0,1,8.78,11.55c3,4.5,5.77,9.21,8.43,14s5,9.28,7.27,14c2.18,4.53,4.23,9.15,6.09,13.82,1.94,4.86,3.65,9.81,5.32,14.76.81,2.41,1.29,4.93,1.91,7.4,1.17,4.65,2.51,9.26,3.44,13.95.88,4.47,1.42,9,1.92,13.55.7,6.33,1.47,12.67,1.72,19,.23,5.7-.16,11.42-.33,17.14-.09,2.83-.18,5.66-.49,8.47-.64,5.64-1.4,11.26-2.19,16.88-.53,3.76-1.1,7.53-1.86,11.26-.6,2.92-1.49,5.79-2.29,8.67a187,187,0,0,1-10.55,29.71c-2.21,4.69-4.67,9.26-7.11,13.84-3,5.62-6,11.22-9.19,16.75a33.6,33.6,0,0,1-3.4,4.28c-.28.35-.57.69-.83,1.05-5,6.75-9.76,13.75-15.15,20.19-4.14,4.95-9.07,9.24-13.71,13.76a189.17,189.17,0,0,1-30.6,23.88c-7.51,4.76-15.56,8.67-23.48,12.75a124.26,124.26,0,0,1-13.63,6.14c-5.7,2.12-11.56,3.85-17.39,5.6-4.5,1.35-9,2.59-13.61,3.64-3.93.89-7.94,1.46-11.92,2.12A129.57,129.57,0,0,1,222,422c-9.66-.08-19.34.25-29-.18-5.78-.25-11.52-1.48-17.24-2.52-6.79-1.24-13.55-2.7-20.3-4.18a53.05,53.05,0,0,1-6.08-2c-4.4-1.54-8.86-3-13.18-4.73-7-2.88-14-5.83-20.86-9.07A122,122,0,0,1,99.73,391c-7.76-5.18-15.36-10.67-22.62-16.53-6-4.88-11.64-10.36-17.21-15.8-2.54-2.47-4.47-5.54-6.82-8.21-2.88-3.26-6.17-6.18-8.8-9.61a209.07,209.07,0,0,1-12-17.14c-4.25-6.88-8.13-14-11.82-21.22-2.33-4.53-4.07-9.36-6-14.09-1.76-4.36-3.58-8.71-5-13.18-1.31-4-2.24-8.16-3.21-12.28-1.22-5.23-2.53-10.45-3.4-15.75a156.68,156.68,0,0,1-1.94-16.7c-.52-9.5-1.07-19-.82-28.53.21-7.64,1.46-15.26,2.48-22.86.74-5.49,1.69-11,2.87-16.36a129.79,129.79,0,0,1,3.73-13.26c2-5.89,4.08-11.75,6.45-17.48,2.63-6.39,5.45-12.71,8.54-18.89a137.66,137.66,0,0,1,7.46-12.66c3.59-5.61,7.16-11.26,11.16-16.59A164.35,164.35,0,0,1,55,69.24c5.6-5.91,11.36-11.69,17.46-17.08,5.3-4.68,11.13-8.77,16.78-13.06a167.91,167.91,0,0,1,29.86-17.64c3.65-1.75,7.61-3,11-5.05,6.69-4.06,14.38-5.11,21.54-7.69,4.52-1.64,9.37-2.42,14.1-3.42C171.76,4,177.73,2.9,183.7,1.84a54.91,54.91,0,0,1,6.41-.58c7-.44,14.07-.84,21.11-1.26Zm165.3,314.28-.58-.94c-36,36.38-79.39,53.22-130,46.61s-89.53-32.91-113.38-78c-29.64-56-24.2-110.7,12.1-162.44,28.77-36.17,65.84-56.82,112.28-59.47S342.4,75,375.4,107.26a5.75,5.75,0,0,0-.86-2.71c-1.52-2.25-3.05-4.5-4.72-6.62-4.73-6-9.25-12.21-14.38-17.86a203.34,203.34,0,0,0-15.9-15.3,197.35,197.35,0,0,0-15.6-12.52,191.22,191.22,0,0,0-33.27-18.92,197.62,197.62,0,0,0-32.81-11.41A195.48,195.48,0,0,0,220,16.55a174.44,174.44,0,0,0-32.06,1.24c-7.37,1-14.73,2.27-22,3.87a176.32,176.32,0,0,0-28.68,9.19A170.31,170.31,0,0,0,109.3,44.93,280.47,280.47,0,0,0,85.12,62.39,163.11,163.11,0,0,0,58.55,89.63,224.21,224.21,0,0,0,40.81,116,185.37,185.37,0,0,0,24.6,153.8a172.29,172.29,0,0,0-4.9,20.14,230.1,230.1,0,0,0-3.52,27.13,171.44,171.44,0,0,0,2.14,40.33c1.38,7.52,2.77,15.06,4.81,22.41s4.69,14.41,7.37,21.49a170.91,170.91,0,0,0,18,34.06c5.76,8.65,11.93,17.05,19.36,24.38,6.14,6.05,12.09,12.33,18.68,17.86A157.86,157.86,0,0,0,117,382.17c6.17,3.1,12.22,6.53,18.63,9,8.51,3.35,17.23,6.21,26,8.77a137.89,137.89,0,0,0,17.73,3.62,201.76,201.76,0,0,0,21,2.52,193.81,193.81,0,0,0,77.29-11.31c14.85-5.37,28.71-12.72,42.16-20.9,1.31-.81,2.42-1.93,3.7-2.81,2.56-1.75,5.29-3.27,7.73-5.18s4.38-4.16,6.66-6.12,4.66-3.7,7-5.56a15.37,15.37,0,0,0,1.51-1.51L355,343.3c1.57-1.73,3.27-3.35,4.71-5.19q5.83-7.46,11.49-15.08C373.08,320.46,374.76,317.72,376.54,315.07ZM130.14,211c-1,44.79,38,85.88,88.28,83.81,43.69-1.79,81.42-37.47,81.12-84.69-.3-45.62-37.14-84-86.45-83.47C168.49,127.13,129.42,163.94,130.14,211Z"/></svg>